<?xml version="1.0" encoding="utf-8"?>
<!-- Generator: Adobe Illustrator 24.1.0, SVG Export Plug-In . SVG Version: 6.00 Build 0)  -->
<svg version="1.1" id="Layer_1" xmlns="http://www.w3.org/2000/svg" xmlns:xlink="http://www.w3.org/1999/xlink" x="0px" y="0px"
	 viewBox="0 0 1698.8 322.5" style="enable-background:new 0 0 1698.8 322.5;" xml:space="preserve">
<style type="text/css">
	.st0{fill:#111111;}
	.st1{fill:#ECECEC;}
	.st2{fill:#C88B00;}
	.st3{fill:#7A084C;}
	.st4{fill:#E0B400;}
</style>
<path class="st0" d="M361.4,255.6V66.9h73.5c12.5-0.1,24.9,2.6,36.3,7.8c11,5,21,12,29.5,20.6c8.5,8.7,15.2,18.8,19.9,30
	c9.6,22.9,9.7,48.7,0.1,71.6c-4.6,11.2-11.3,21.4-19.8,30.1c-8.5,8.7-18.5,15.7-29.5,20.7c-11.5,5.2-23.9,7.9-36.5,7.8L361.4,255.6
	L361.4,255.6z M423.1,207.8c7,0.1,13.9-1.1,20.4-3.5c5.6-2.1,10.6-5.4,14.8-9.6c4-4.2,7.2-9.1,9.2-14.5c2.2-6,3.3-12.4,3.2-18.8
	c0.1-6.4-1.1-12.7-3.3-18.7c-4.1-11.2-12.9-20.1-24.1-24.3c-6.4-2.5-13.2-3.7-20.1-3.5h-6.8V208L423.1,207.8z"/>
<path class="st1" d="M434.9,70.9c11.9-0.1,23.8,2.5,34.6,7.4c10.6,4.8,20.2,11.5,28.3,19.8c8.1,8.3,14.5,18.1,19,28.8
	c9.2,21.9,9.3,46.6,0.1,68.5c-4.4,10.7-10.8,20.5-18.9,28.9c-8.1,8.3-17.7,15.1-28.3,19.9c-10.9,5-22.8,7.5-34.9,7.4h-69.4V70.9
	H434.9 M412.3,211.8h10.8c7.5,0.1,14.9-1.2,21.8-3.8c6.1-2.4,11.6-6,16.2-10.6c4.4-4.5,7.9-10,10.1-15.9c2.4-6.5,3.6-13.3,3.5-20.2
	c0.1-6.9-1.2-13.7-3.6-20.1c-4.5-12.3-14.1-22-26.4-26.6c-6.9-2.6-14.2-4-21.6-3.8h-10.8V211.8 M434.9,62.9h-77.5v196.7h77.5
	c13.2,0.1,26.2-2.7,38.2-8.2c11.5-5.2,21.9-12.6,30.7-21.6c8.8-9.1,15.8-19.7,20.6-31.4c10-23.9,9.9-50.9-0.1-74.7
	c-4.9-11.6-11.9-22.2-20.7-31.2S484.4,76.3,472.9,71C460.9,65.6,447.9,62.8,434.9,62.9L434.9,62.9z M420.3,118.7h2.8
	c6.4-0.1,12.7,1,18.6,3.3c10.2,3.8,18.1,11.9,21.9,22c2.1,5.5,3.1,11.4,3.1,17.3c0.1,5.9-1,11.8-3,17.4c-1.8,4.9-4.6,9.4-8.3,13.1
	c-3.8,3.8-8.4,6.8-13.4,8.7c-6,2.3-12.4,3.4-18.8,3.3h-2.8L420.3,118.7L420.3,118.7z"/>
<rect x="549.8" y="66.9" class="st0" width="55" height="188.7"/>
<path class="st1" d="M600.7,70.9v180.7h-47V70.9H600.7 M608.7,62.9h-63v196.7h63V62.9z"/>
<path class="st0" d="M725.1,260.7c-13.7,0.2-27.2-2.3-40-7.2c-11.7-4.6-22.3-11.5-31.2-20.4c-8.8-9-15.8-19.8-20.3-31.6
	c-9.6-26-9.6-54.5-0.1-80.6c4.5-11.8,11.4-22.5,20.3-31.4c9.1-8.9,19.8-15.8,31.7-20.3c12.2-4.8,26-7.2,41-7.2
	c19.5,0,36.8,4.3,51.6,12.8c14.8,8.5,26.8,21.8,35.4,39.6l1.9,3.8l-52.2,21.6l-1.5-3.7c-3.8-9.1-8.8-15.7-14.7-19.5
	c-6.1-3.9-13.2-5.9-20.5-5.8c-6-0.1-12,1.1-17.5,3.6c-5.2,2.3-9.7,5.8-13.3,10.2c-3.9,4.8-6.9,10.4-8.9,16.3
	c-2.3,7-3.4,14.3-3.3,21.7c-0.1,6.8,0.9,13.6,2.8,20.2c1.7,5.7,4.5,11,8.2,15.6c3.6,4.3,8.2,7.8,13.4,10.1c6,2.5,12.5,3.7,19,3.6
	c4.2,0,8.4-0.5,12.4-1.4c3.7-0.9,7.2-2.4,10.3-4.5c3-2,5.5-4.7,7.3-7.8c1.4-2.3,2.4-4.8,3.1-7.3h-37.6v-44.6h101.2v4
	c0,8.9-0.4,17.7-1.2,26.5c-0.7,7.8-2.4,15.4-5,22.8c-3.3,9.5-8.1,18.3-14.3,26.2c-5.9,7.5-13.1,14-21.3,19.1s-17.2,9.1-26.5,11.6
	C745.6,259.4,735.4,260.7,725.1,260.7z"/>
<path class="st1" d="M726.6,65.9c18.9,0,35.4,4.1,49.6,12.2S801.7,98.9,810,116l-44.6,18.5c-4.2-9.9-9.6-17-16.2-21.3
	c-6.7-4.3-14.6-6.6-22.6-6.5c-6.6-0.1-13.1,1.3-19.2,4c-5.7,2.6-10.7,6.5-14.7,11.3c-4.3,5.2-7.5,11.2-9.6,17.6
	c-2.4,7.4-3.6,15.2-3.5,23c-0.1,7.2,0.9,14.4,3,21.3c1.8,6.2,4.9,12,9,17c4,4.8,9.1,8.6,14.9,11.1c6.5,2.8,13.5,4.1,20.6,4
	c4.5,0,9-0.5,13.4-1.5c4.1-1,8.1-2.6,11.6-5c3.5-2.3,6.4-5.4,8.5-9c2.4-4.1,3.9-8.7,4.5-13.4h-38.6v-36.6h93.2
	c0,8.7-0.4,17.4-1.2,26.1c-0.7,7.4-2.3,14.8-4.8,21.8c-3.1,9-7.8,17.5-13.7,25c-5.7,7.2-12.5,13.4-20.2,18.2
	c-7.9,4.9-16.5,8.7-25.5,11.1c-9.5,2.6-19.4,3.9-29.2,3.8c-13.1,0.2-26.2-2.2-38.5-7c-11.2-4.4-21.4-11-29.8-19.5
	c-8.5-8.6-15.1-18.9-19.4-30.2c-9.2-25.1-9.3-52.6-0.1-77.7c4.3-11.3,10.9-21.6,19.4-30.1c8.7-8.5,19-15.1,30.3-19.4
	C698.9,68.2,712,65.8,726.6,65.9 M726.6,57.8c-15.5,0-29.8,2.5-42.5,7.5c-12.3,4.7-23.6,11.9-33,21.2c-9.3,9.3-16.6,20.6-21.3,32.9
	c-9.9,27-9.8,56.6,0.1,83.5c4.7,12.3,12,23.5,21.2,32.9c9.3,9.3,20.3,16.5,32.5,21.3c13.2,5.1,27.3,7.7,41.4,7.5
	c10.6,0,21.1-1.3,31.4-4.1c9.8-2.7,19.1-6.8,27.7-12.1c8.5-5.3,16-12.1,22.3-20c6.4-8.2,11.5-17.5,14.9-27.3
	c2.7-7.7,4.4-15.6,5.2-23.7c0.9-9,1.3-17.9,1.2-26.9v-8h-61l1.6-0.7l44.6-18.5l7.9-3.2l-3.7-7.6c-9-18.5-21.4-32.4-37-41.3
	C764.8,62.3,746.7,57.9,726.6,57.8L726.6,57.8z M727.1,207.9c-6,0.1-11.9-1-17.4-3.3c-4.7-2-8.8-5.1-12-9c-3.4-4.2-6-9-7.5-14.2
	c-1.8-6.2-2.7-12.6-2.6-19c-0.1-6.9,0.9-13.8,3.1-20.5c1.8-5.5,4.5-10.5,8.1-15c3.2-3.9,7.3-7,11.9-9.1c5-2.2,10.4-3.3,15.8-3.2
	c6.5-0.1,12.8,1.7,18.3,5.2c5.2,3.4,9.7,9.4,13.2,17.7l2.1,5h-41.5v52.4h35.9c-0.2,0.4-0.5,0.9-0.7,1.3c-1.5,2.6-3.6,4.8-6.1,6.5
	c-2.7,1.8-5.8,3.1-9,3.9C734.9,207.5,731,207.9,727.1,207.9L727.1,207.9z"/>
<rect x="845.5" y="66.9" class="st0" width="55" height="188.7"/>
<path class="st1" d="M896.5,70.9v180.7h-47V70.9H896.5 M904.5,62.9h-63v196.7h63V62.9z"/>
<polygon class="st0" points="952,255.6 952,114.7 913.4,114.7 913.4,66.9 1045.5,66.9 1045.5,114.7 1006.9,114.7 1006.9,255.6 "/>
<path class="st1" d="M1041.5,70.9v39.8h-38.6v140.9h-47V110.7h-38.6V70.9H1041.5 M1049.5,62.9H909.4v55.8H948v140.9h63V118.7h38.5
	V62.9z"/>
<path class="st0" d="M1172.7,255.6l-10.8-31.4h-61.4l-10.8,31.4h-58.8l71.9-188.7h56.8l71.8,188.7L1172.7,255.6L1172.7,255.6z
	 M1146.7,180.5l-15.5-44.1l-15.5,44.1H1146.7z"/>
<path class="st1" d="M1156.8,70.9l68.8,180.7h-50.1l-10.8-31.4h-67.1l-10.8,31.4h-50.1l68.8-180.7H1156.8 M1110.1,184.5h42.2
	l-21.1-60.2L1110.1,184.5 M1162.3,62.9H1100l-2,5.2l-68.8,180.7l-4.1,10.9h67.4l1.9-5.4l8.9-26h55.7l8.9,26l1.9,5.4h67.4l-4.1-10.9
	l-68.8-180.7L1162.3,62.9L1162.3,62.9z M1121.3,176.5l9.8-28l9.8,28H1121.3z"/>
<polygon class="st0" points="1242.2,255.6 1242.2,66.9 1297.2,66.9 1297.2,207.8 1353.5,207.8 1353.5,255.6 "/>
<path class="st1" d="M1293.2,70.9v140.9h56.3v39.8h-103.3V70.9H1293.2 M1301.2,62.9h-63v196.7h119.3v-55.8h-56.3V62.9L1301.2,62.9z"
	/>
<path class="st0" d="M1369.7,255.6V66.9h74c17.6,0,31.2,4.4,40.6,13s14.2,21.4,14.2,37.5c0,9.7-1.8,18-5.4,24.6
	c-2.4,4.3-5.6,8.2-9.3,11.5c3.4,1.1,6.7,2.5,9.9,4.2c5,2.7,9.3,6.3,12.8,10.7c3.3,4.3,5.6,9.2,7,14.4c1.4,5.4,2,10.9,2,16.4
	c0.1,8.3-1.5,16.5-4.8,24.2c-3.1,7-7.7,13.1-13.5,18c-6.2,5-13.3,8.7-21,10.8c-8.8,2.4-17.9,3.6-27,3.5L1369.7,255.6z M1431,211.2
	c11,0,18.9-1.4,23.4-4c3.9-2.3,5.7-5.9,5.7-11.2s-1.8-8.9-5.7-11.2c-4.5-2.6-12.3-4-23.4-4h-6.3v30.4H1431z M1429.3,137.8
	c16,0,18.1-7.2,18.1-13.5s-2.1-13.5-18.1-13.5h-4.6v27H1429.3z"/>
<path class="st1" d="M1443.7,70.9c16.6,0,29.2,4,37.9,12c8.6,8,12.9,19.5,12.9,34.5c0,9.1-1.6,16.7-4.9,22.6
	c-3.6,6.3-8.8,11.5-15,15.2c6,1,11.8,3,17.1,5.9c4.5,2.4,8.4,5.7,11.5,9.7c3,3.8,5.1,8.3,6.3,13c1.3,5,2,10.2,1.9,15.3
	c0.1,7.7-1.4,15.4-4.4,22.5c-2.8,6.4-7.1,12.1-12.5,16.5c-5.7,4.7-12.4,8.1-19.5,10.1c-8.4,2.3-17.1,3.5-25.9,3.4h-75.5V70.9H1443.7
	 M1420.7,141.8h8.6c14.7,0,22.1-5.8,22.1-17.5s-7.4-17.5-22.1-17.5h-8.6V141.8 M1420.7,215.2h10.3c11.8,0,20.3-1.5,25.4-4.6
	c5.1-3,7.7-7.9,7.7-14.6c0-6.7-2.6-11.6-7.7-14.6s-13.6-4.6-25.4-4.6h-10.3V215.2 M1443.7,62.9h-78v196.7h83.5
	c9.5,0.1,19-1.1,28.1-3.7c8.2-2.3,15.8-6.2,22.4-11.6c6.3-5.3,11.3-11.9,14.6-19.4c3.5-8.1,5.3-16.9,5.1-25.8
	c0-5.9-0.7-11.7-2.2-17.4c-1.5-5.7-4.1-11.1-7.7-15.8c-3.8-4.8-8.5-8.9-13.9-11.8c-1.5-0.8-3-1.6-4.6-2.3c2.1-2.5,4-5.1,5.6-8
	c3.9-7.2,5.9-16.1,5.9-26.5c0-17.3-5.2-30.9-15.5-40.4C1476.9,67.6,1462.3,62.9,1443.7,62.9L1443.7,62.9z M1428.7,114.9h0.6
	c14.1,0,14.1,5.7,14.1,9.5c0,3.8,0,9.5-14.1,9.5h-0.6V114.9L1428.7,114.9z M1428.7,184.9h2.3c13.5,0,19.2,2.2,21.3,3.4
	c1.8,1.1,3.8,2.9,3.8,7.7s-1.9,6.6-3.8,7.7c-2.2,1.3-7.8,3.4-21.3,3.4h-2.3V184.9L1428.7,184.9z"/>
<polygon class="st0" points="1568.4,255.6 1568.4,166.1 1498.8,66.9 1564.7,66.9 1596.2,113.1 1627.4,66.9 1693.3,66.9 
	1623.4,166.1 1623.4,255.6 "/>
<path class="st1" d="M1685.6,70.9l-66.2,94v86.8h-47v-86.8l-65.9-94h56.1l33.6,49.4l33.3-49.4L1685.6,70.9 M1701,62.9h-75.8
	l-2.4,3.5l-26.7,39.6l-26.9-39.6l-2.4-3.5h-75.7l8.8,12.6l64.5,91.9v92.2h63v-92.2l64.7-91.9L1701,62.9L1701,62.9z"/>
<g>
	<g id="dark_yellow_segment">
		<polygon class="st2" points="0.2,38.2 30.9,298.6 87.3,266.8 129.1,187.6 62.7,42.6 		"/>
	</g>
	<g id="red_segment">
		<polygon class="st3" points="62.7,42.6 129.1,187.6 255.2,33.7 171,48.8 		"/>
	</g>
	<g id="bright_yellow_segment">
		<polygon class="st4" points="87.3,266.8 270.8,298 289.2,27.6 255.2,33.7 129.1,187.6 		"/>
	</g>
</g>
</svg>
