<svg width="6277" height="2048" viewBox="0 0 6277 2048" fill="none" xmlns="http://www.w3.org/2000/svg">
<g clip-path="url(#clip0_1_2)">
<path d="M769.659 878.96L763.463 885.156C733.17 885.156 712.516 893.877 701.5 911.318C695.533 921.416 679.239 955.151 652.618 1012.52C592.491 1143.33 542.691 1257.62 503.219 1355.39L392.374 1629.4C357.95 1714.31 321.002 1774.67 281.529 1810.47C244.352 1843.97 198.912 1860.73 145.211 1860.73C111.246 1860.73 78.4288 1852.7 46.7589 1836.63C54.5616 1804.04 62.5938 1758.37 70.8555 1699.62L88.7559 1696.18C112.623 1730.15 144.982 1747.13 185.831 1747.13C234.024 1747.13 278.316 1700.08 318.707 1605.99L346.935 1539.9L123.868 960.2C111.017 926.694 99.0831 906.04 88.0674 898.237C77.5108 889.976 56.3975 885.615 24.7276 885.156L17.8428 878.271V836.963L25.4161 830.078C54.7911 831.455 111.017 832.144 194.093 832.144C271.202 832.144 333.854 831.455 382.047 830.078L388.932 836.963V878.271L382.047 885.156C329.723 885.156 303.561 894.565 303.561 913.384C303.561 921.646 305.856 931.743 310.445 943.677C317.789 964.79 329.034 996.23 344.181 1038L444.698 1303.75L505.284 1158.48C564.493 1016.66 594.098 933.809 594.098 909.941C594.098 893.418 567.477 885.156 514.234 885.156L507.35 878.271V836.963L514.923 830.078C541.544 831.455 586.524 832.144 649.864 832.144C685.665 832.144 723.072 831.455 762.086 830.078L769.659 836.963V878.96ZM1555.95 1476.56L1549.07 1483.44C1480.22 1481.15 1436.85 1480 1418.95 1480C1403.8 1480 1381.31 1480.46 1351.48 1481.38C1321.64 1482.75 1299.38 1483.44 1284.69 1483.44L1279.19 1477.93C1282.86 1440.3 1284.69 1404.5 1284.69 1370.53C1260.83 1388.43 1219.06 1426.53 1159.39 1484.82C1129.56 1496.29 1097.66 1502.03 1063.69 1502.03C1001.73 1502.03 952.849 1485.28 917.048 1451.77C881.247 1417.81 863.347 1369.16 863.347 1305.82C863.347 1298.01 863.806 1281.49 864.724 1256.25C865.642 1231 866.101 1206.67 866.101 1183.27V1095.14C866.101 1004.26 862.659 951.479 855.774 936.792C851.184 927.612 841.316 921.875 826.169 919.58C820.662 918.662 800.466 917.515 765.583 916.138L758.699 909.253V870.698L765.583 863.125C853.249 855.322 942.063 836.274 1032.02 805.981L1047.17 814.932C1041.2 891.123 1038.22 961.577 1038.22 1026.29V1160.55C1038.22 1223.43 1040.29 1266.34 1044.42 1289.29C1049.01 1316.83 1059.79 1337.71 1076.77 1351.94C1094.22 1366.17 1117.39 1373.29 1146.31 1373.29C1182.11 1373.29 1213.55 1361.81 1240.63 1338.86C1266.34 1315.91 1279.88 1289.75 1281.25 1260.38C1282.17 1237.89 1282.63 1223.89 1282.63 1218.38V1095.14C1282.63 1005.18 1279.19 952.397 1272.3 936.792C1268.17 927.612 1258.53 921.875 1243.39 919.58C1237.88 918.662 1217.68 917.515 1182.8 916.138L1175.23 909.253V870.698L1182.8 863.125C1270.01 855.322 1358.82 836.274 1449.24 805.981L1463.7 814.932C1457.73 883.779 1454.75 954.233 1454.75 1026.29V1242.48C1454.75 1339.32 1457.5 1394.17 1463.01 1407.02C1465.76 1413.45 1470.35 1417.58 1476.78 1419.41C1487.8 1422.63 1511.66 1425.38 1548.38 1427.68L1555.95 1434.56V1476.56ZM2082.01 814.932L2077.19 937.48C2076.73 957.676 2075.81 980.625 2074.43 1006.33L2045.52 1015.28C2023.94 984.067 1994.11 968.462 1956.01 968.462C1921.59 968.462 1893.13 982.231 1870.64 1009.77C1856.87 1026.75 1849.99 1051.77 1849.99 1084.81V1245.92C1849.99 1279.42 1851.6 1326.01 1854.81 1385.68C1855.73 1402.66 1860.55 1413.68 1869.27 1418.73C1877.99 1423.77 1909.89 1427.22 1964.96 1429.05L1971.85 1435.25V1477.25L1964.96 1484.13C1897.49 1481.38 1830.48 1480 1763.93 1480C1681.77 1480 1619.12 1481.61 1575.98 1484.82L1569.09 1477.93V1435.94L1575.98 1429.05C1620.04 1427.68 1647.35 1424.23 1657.9 1418.73C1667.08 1414.59 1672.13 1403.58 1673.05 1385.68C1676.26 1326.01 1677.87 1261.98 1677.87 1193.59V1095.14C1677.87 1003.34 1674.43 950.562 1667.54 936.792C1662.95 927.612 1653.08 921.875 1637.94 919.58C1632.43 918.662 1612.46 917.515 1578.04 916.138L1571.16 909.253V870.698L1578.04 863.125C1660.66 855.322 1747.64 836.274 1838.97 805.981L1854.12 814.932L1852.74 949.873C1881.2 916.826 1915.62 878.271 1956.01 834.209C1974.83 815.85 2000.54 806.67 2033.12 806.67C2052.4 806.67 2068.7 809.424 2082.01 814.932ZM2796.7 878.96L2790.5 885.156C2760.21 885.156 2739.56 893.877 2728.54 911.318C2722.57 921.416 2706.28 955.151 2679.66 1012.52C2619.53 1143.33 2569.73 1257.62 2530.26 1355.39L2419.41 1629.4C2384.99 1714.31 2348.04 1774.67 2308.57 1810.47C2271.39 1843.97 2225.95 1860.73 2172.25 1860.73C2138.29 1860.73 2105.47 1852.7 2073.8 1836.63C2081.6 1804.04 2089.63 1758.37 2097.9 1699.62L2115.8 1696.18C2139.66 1730.15 2172.02 1747.13 2212.87 1747.13C2261.06 1747.13 2305.36 1700.08 2345.75 1605.99L2373.97 1539.9L2150.91 960.2C2138.06 926.694 2126.12 906.04 2115.11 898.237C2104.55 889.976 2083.44 885.615 2051.77 885.156L2044.88 878.271V836.963L2052.46 830.078C2081.83 831.455 2138.06 832.144 2221.13 832.144C2298.24 832.144 2360.89 831.455 2409.09 830.078L2415.97 836.963V878.271L2409.09 885.156C2356.76 885.156 2330.6 894.565 2330.6 913.384C2330.6 921.646 2332.9 931.743 2337.49 943.677C2344.83 964.79 2356.07 996.23 2371.22 1038L2471.74 1303.75L2532.32 1158.48C2591.53 1016.66 2621.14 933.809 2621.14 909.941C2621.14 893.418 2594.52 885.156 2541.27 885.156L2534.39 878.271V836.963L2541.96 830.078C2568.58 831.455 2613.56 832.144 2676.9 832.144C2712.71 832.144 2750.11 831.455 2789.13 830.078L2796.7 836.963V878.96ZM3525.85 878.96L3518.97 886.533C3490.97 888.369 3472.61 891.812 3463.89 896.86C3457.46 900.532 3449.66 910.63 3440.48 927.153C3431.3 943.677 3414.09 980.854 3388.84 1038.69L3257.35 1343.68C3252.76 1354.7 3233.02 1404.04 3198.14 1491.7H3077.65C3051.95 1419.18 3023.95 1345.06 2993.66 1269.33C2945.47 1148.61 2904.39 1044.88 2870.42 958.135C2855.27 919.58 2838.98 897.09 2821.54 890.664C2811.44 886.992 2797.9 884.927 2780.92 884.468L2773.35 876.895V836.963L2780.92 830.078C2823.15 831.455 2884.42 832.144 2964.74 832.144C3035.43 832.144 3090.73 831.455 3130.67 830.078L3138.24 836.963V877.583L3130.67 885.156C3096.7 886.074 3074.67 888.14 3064.57 891.353C3054.47 894.565 3049.43 900.762 3049.43 909.941C3049.43 922.793 3077.65 1003.57 3134.11 1152.29C3163.94 1231.69 3183.45 1281.49 3192.63 1301.68C3222 1232.84 3250 1165.37 3276.62 1099.27C3320.23 991.411 3342.03 928.301 3342.03 909.941C3342.03 900.303 3337.21 894.106 3327.57 891.353C3318.39 888.14 3295.9 885.845 3260.1 884.468L3252.53 877.583V836.963L3260.1 830.078C3295.44 831.455 3337.21 832.144 3385.4 832.144C3437.27 832.144 3481.79 831.455 3518.97 830.078L3525.85 836.963V878.96ZM3659.47 1283.1C3688.85 1283.1 3714.09 1293.65 3735.2 1314.77C3756.32 1335.42 3766.87 1361.35 3766.87 1392.56C3766.87 1422.86 3756.32 1448.56 3735.2 1469.67C3714.09 1490.79 3688.85 1501.34 3659.47 1501.34C3630.1 1501.34 3604.62 1490.79 3583.05 1469.67C3561.94 1448.1 3551.38 1422.4 3551.38 1392.56C3551.38 1362.27 3561.94 1336.57 3583.05 1315.45C3604.16 1293.88 3629.64 1283.1 3659.47 1283.1ZM4114.61 579.473C4114.61 608.848 4104.28 634.092 4083.63 655.205C4062.97 675.859 4038.19 686.187 4009.27 686.187C3979.9 686.187 3954.88 675.859 3934.23 655.205C3913.57 634.092 3903.25 608.848 3903.25 579.473C3903.25 549.18 3913.57 523.706 3934.23 503.052C3955.34 482.397 3980.36 472.07 4009.27 472.07C4037.73 472.07 4062.28 482.397 4082.94 503.052C4104.05 523.706 4114.61 549.18 4114.61 579.473ZM4209.62 1477.93L4202.73 1484.82C4159.13 1481.61 4096.25 1480 4014.09 1480C3931.93 1480 3869.28 1481.61 3826.14 1484.82L3819.25 1477.93V1435.94L3826.14 1429.05C3870.2 1427.68 3897.51 1424.23 3908.07 1418.73C3917.25 1414.59 3922.29 1403.58 3923.21 1385.68C3926.43 1326.01 3928.03 1261.98 3928.03 1193.59V1095.14C3928.03 1006.1 3924.59 953.315 3917.7 936.792C3914.03 927.612 3904.16 921.875 3888.1 919.58C3882.59 918.662 3862.63 917.515 3828.2 916.138L3821.32 909.253V870.698L3828.2 863.125C3916.33 855.322 4005.14 836.274 4094.64 805.981L4109.1 814.932C4103.13 898.467 4100.15 968.921 4100.15 1026.29V1245.92C4100.15 1279.42 4101.76 1326.01 4104.97 1385.68C4105.89 1403.58 4110.94 1414.59 4120.12 1418.73C4130.67 1424.23 4157.98 1427.68 4202.05 1429.05L4209.62 1435.94V1477.93ZM5024.14 1477.25L5017.26 1484.82C4966.77 1481.61 4924.08 1480 4889.2 1480C4857.07 1480 4810.25 1481.61 4748.75 1484.82L4741.87 1477.93C4750.13 1375.58 4754.26 1296.64 4754.26 1241.1V1106.16C4754.26 994.165 4713.87 938.169 4633.09 938.169C4590.86 938.169 4557.81 952.627 4533.95 981.543C4513.75 1005.87 4503.65 1030.42 4503.65 1055.21V1183.96C4503.65 1302.83 4506.64 1375.81 4512.6 1402.89C4516.28 1418.96 4542.9 1427.45 4592.47 1428.36L4599.35 1435.25V1477.25L4592.47 1484.13C4553.45 1481.38 4495.16 1480 4417.59 1480C4335.44 1480 4272.78 1481.61 4229.64 1484.82L4222.75 1477.93V1435.94L4229.64 1429.05C4273.7 1427.68 4301.01 1424.23 4311.57 1418.73C4320.75 1414.59 4325.8 1403.58 4326.71 1385.68C4329.93 1326.01 4331.53 1261.98 4331.53 1193.59V1095.14C4331.53 1003.34 4328.09 950.562 4321.21 936.792C4316.62 927.612 4306.75 921.875 4291.6 919.58C4286.09 918.662 4266.13 917.515 4231.71 916.138L4224.82 909.253V870.698L4231.71 863.125C4314.32 855.322 4401.3 836.274 4492.64 805.981L4507.78 814.932L4506.41 930.596L4624.83 831.455C4655.12 819.062 4688.39 812.866 4724.65 812.866C4797.63 812.866 4852.25 834.897 4888.51 878.96C4917.89 914.761 4932.57 967.314 4932.57 1036.62C4932.57 1044.42 4931.66 1076.32 4929.82 1132.32C4927.98 1188.32 4927.07 1228.25 4927.07 1252.11C4927.07 1321.42 4928.21 1365.71 4930.51 1384.99C4932.8 1403.81 4938.08 1415.74 4946.34 1420.79C4954.61 1425.84 4978.47 1428.82 5017.95 1429.74L5024.14 1436.63V1477.25ZM5535.05 460.366L5532.29 534.033L5533.67 602.881L5512.33 615.273C5490.29 592.324 5462.3 580.85 5428.33 580.85C5375.09 580.85 5345.26 601.274 5338.83 642.124C5335.62 662.778 5334.01 704.087 5334.01 766.05V862.437H5396.66C5427.87 862.437 5468.26 860.601 5517.83 856.929L5527.47 864.502L5511.64 942.988L5504.75 949.873L5406.3 949.185C5371.42 949.185 5347.32 949.414 5334.01 949.873V1072.42C5334.01 1280.8 5337.22 1392.1 5343.65 1406.33C5347.32 1414.59 5353.52 1419.87 5362.24 1422.17C5376.01 1425.38 5407.68 1427.68 5457.25 1429.05L5464.13 1435.94V1477.93L5457.25 1484.82L5406.3 1482.75C5357.65 1480.92 5304.87 1480 5247.95 1480C5165.79 1480 5103.14 1481.61 5060 1484.82L5053.11 1477.93V1435.94L5060 1429.05C5104.06 1427.68 5131.37 1424.23 5141.93 1418.73C5151.11 1414.59 5156.15 1403.58 5157.07 1385.68C5160.29 1326.01 5161.89 1221.59 5161.89 1072.42V949.873C5151.79 949.414 5145.6 949.185 5143.3 949.185C5138.25 949.185 5124.94 949.873 5103.37 951.25C5092.81 951.709 5078.36 952.397 5060 953.315L5053.11 946.431V925.088L5059.31 915.449L5120.58 883.779C5132.52 878.271 5145.14 871.616 5158.45 863.813C5160.74 861.06 5161.89 856.929 5161.89 851.421V841.094C5161.89 770.41 5166.48 722.217 5175.66 696.514C5180.71 682.744 5190.35 667.139 5204.58 649.697C5208.71 644.648 5238.54 615.732 5294.08 562.949L5336.76 522.329C5349.16 509.937 5364.99 495.249 5384.27 478.267C5409.51 459.907 5440.27 450.728 5476.53 450.728C5495.8 450.728 5515.31 453.94 5535.05 460.366ZM6218.76 1138.52C6218.76 1301 6164.14 1410.92 6054.9 1468.3C6001.66 1496.29 5940.84 1510.29 5872.45 1510.29C5766.89 1510.29 5686.34 1479.77 5630.8 1418.73C5575.72 1357.68 5548.18 1270.24 5548.18 1156.42C5548.18 998.984 5601.88 894.106 5709.29 841.782C5762.07 816.079 5823.34 803.228 5893.11 803.228C6039.52 803.228 6136.6 853.945 6184.33 955.381C6207.28 1004.03 6218.76 1065.08 6218.76 1138.52ZM6028.05 1194.97C6028.05 1080.68 6015.43 998.984 5990.18 949.873C5965.4 900.303 5927.3 875.518 5875.9 875.518C5784.56 875.518 5738.89 957.905 5738.89 1122.68C5738.89 1334.27 5790.07 1440.07 5892.42 1440.07C5956.22 1440.07 5996.84 1404.96 6014.28 1334.73C6023.46 1298.01 6028.05 1251.43 6028.05 1194.97Z" fill="white"/>
</g>
<defs>
<clipPath id="clip0_1_2">
<rect width="6276.56" height="2048" fill="white"/>
</clipPath>
</defs>
</svg>
