<svg xmlns="http://www.w3.org/2000/svg" viewBox="0 0 24 24"><path d="M12 10.8c-1.087-2.114-4.046-6.053-6.798-7.995C2.566.944 1.561 1.266.902 1.565.139 1.908 0 3.08 0 3.768c0 .69.378 5.65.601 6.486.636 2.38 2.912 3.166 4.996 2.946-3.465.532-6.508 2.294-4.076 6.528 2.668 4.64 5.705 3.416 7.347 2.46C10.563 21.1 11.59 19.56 12 18.6c.41.96 1.437 2.5 3.132 3.588 1.642.956 4.679 2.18 7.347-2.46 2.432-4.234-.611-5.996-4.076-6.528 2.084.22 4.36-.566 4.996-2.946C23.622 9.418 24 4.458 24 3.768c0-.688-.139-1.86-.902-2.203-.659-.3-1.664-.62-4.3 1.24C16.046 4.748 13.087 8.687 12 10.8z"/></svg>
