<svg xmlns="http://www.w3.org/2000/svg" viewBox="0 0 24 24"><path d="M12.186 24h-.007c-3.581-.024-6.334-1.205-8.184-3.509C2.35 18.44 1.5 15.586 1.472 12.01v-.017c.03-3.579.879-6.43 2.525-8.482C5.845 1.205 8.6.024 12.18 0h.014c2.746.02 5.043.725 6.826 2.098 1.677 1.29 2.858 3.13 3.509 5.467l-2.04.569c-1.104-3.96-3.898-5.984-8.304-6.015-2.91.022-5.11.936-6.54 2.717C4.307 6.504 3.616 8.914 3.59 12c.025 3.086.718 5.496 2.057 7.164 1.432 1.783 3.631 2.698 6.54 2.717 2.623-.02 4.358-.631 5.8-2.045 1.647-1.613 1.618-3.593 1.09-4.798-.31-.71-.873-1.3-1.634-1.751-.192 1.352-.622 2.446-1.284 3.272-.886 1.102-2.14 1.704-3.73 1.79-1.202.065-2.361-.218-3.259-.801-1.063-.689-1.685-1.74-1.752-2.96-.065-1.187.408-2.262 1.33-3.025.86-.712 2.048-1.118 3.535-1.21 1.088-.066 2.105.016 3.033.245-.096-1.543-.737-2.373-2.007-2.585-1.327-.221-2.594.143-3.164.527l-1.107-1.69c.835-.547 2.466-1.088 4.378-.828 1.985.27 3.449 1.433 3.768 3.983.143.085.282.174.417.27 1.2.852 2.066 1.907 2.5 3.055.628 1.66.674 4.318-1.404 6.35-1.834 1.796-4.087 2.584-7.295 2.607z"/></svg>
